<svg version="1.2" xmlns="http://www.w3.org/2000/svg" xmlns:xlink="http://www.w3.org/1999/xlink" overflow="visible" preserveAspectRatio="none" viewBox="0 0 16 18" width="16" height="18"><g transform="translate(0, 0)"><g transform="translate(0, 0) rotate(0)"><path d="M5,0v1h-5v2h1v13c0,1.10457 0.89543,2 2,2h10c1.10457,0 2,-0.89543 2,-2v-13h1v-2h-5v-1zM3,3h10v13h-10zM5,5v9h2v-9zM9,5v9h2v-9z" style="stroke-width: 0; stroke-linecap: butt; stroke-linejoin: miter; fill: rgb(35, 64, 117);" vector-effect="non-scaling-stroke"/></g><defs><path id="path-1679381358826494" d="M5,0v1h-5v2h1v13c0,1.10457 0.89543,2 2,2h10c1.10457,0 2,-0.89543 2,-2v-13h1v-2h-5v-1zM3,3h10v13h-10zM5,5v9h2v-9zM9,5v9h2v-9z" vector-effect="non-scaling-stroke"/></defs></g></svg>